<?xml version="1.0" encoding="UTF-8"?>
<svg xmlns="http://www.w3.org/2000/svg" version="1.1" width="300" height="300" viewBox="0 0 300 300"><rect x="0" y="0" width="300" height="300" fill="#fefefe"/><g transform="scale(7.317)"><g transform="translate(4.000,4.000)"><path fill-rule="evenodd" d="M10 0L10 2L11 2L11 0ZM12 0L12 1L13 1L13 0ZM15 0L15 1L14 1L14 5L11 5L11 6L10 6L10 4L11 4L11 3L8 3L8 4L9 4L9 5L8 5L8 7L9 7L9 8L6 8L6 9L5 9L5 8L0 8L0 9L5 9L5 11L4 11L4 13L3 13L3 10L2 10L2 14L0 14L0 19L2 19L2 20L3 20L3 24L2 24L2 25L3 25L3 24L4 24L4 25L8 25L8 27L11 27L11 28L13 28L13 29L9 29L9 28L8 28L8 33L11 33L11 30L12 30L12 32L13 32L13 33L14 33L14 32L13 32L13 29L14 29L14 30L15 30L15 33L16 33L16 32L17 32L17 33L18 33L18 32L17 32L17 31L19 31L19 30L20 30L20 31L21 31L21 32L19 32L19 33L21 33L21 32L22 32L22 33L25 33L25 32L26 32L26 33L27 33L27 32L28 32L28 31L27 31L27 30L29 30L29 32L31 32L31 33L32 33L32 32L31 32L31 31L32 31L32 30L31 30L31 29L32 29L32 26L33 26L33 24L32 24L32 26L30 26L30 25L29 25L29 24L31 24L31 23L32 23L32 22L33 22L33 21L32 21L32 20L31 20L31 19L32 19L32 18L33 18L33 17L32 17L32 16L31 16L31 15L32 15L32 14L33 14L33 13L31 13L31 15L30 15L30 16L31 16L31 19L30 19L30 17L29 17L29 16L28 16L28 17L29 17L29 19L30 19L30 20L31 20L31 23L30 23L30 21L29 21L29 20L28 20L28 19L25 19L25 20L24 20L24 19L23 19L23 18L24 18L24 17L26 17L26 18L27 18L27 17L26 17L26 14L27 14L27 15L29 15L29 14L27 14L27 13L30 13L30 12L31 12L31 11L32 11L32 10L33 10L33 9L32 9L32 8L31 8L31 9L30 9L30 8L29 8L29 9L30 9L30 10L29 10L29 11L30 11L30 12L28 12L28 11L27 11L27 13L26 13L26 12L25 12L25 11L26 11L26 10L27 10L27 9L28 9L28 8L27 8L27 9L26 9L26 8L24 8L24 7L25 7L25 5L24 5L24 4L25 4L25 2L23 2L23 1L24 1L24 0L23 0L23 1L22 1L22 2L19 2L19 1L21 1L21 0ZM8 1L8 2L9 2L9 1ZM17 1L17 2L15 2L15 3L16 3L16 4L17 4L17 5L18 5L18 4L21 4L21 5L23 5L23 7L24 7L24 5L23 5L23 4L24 4L24 3L23 3L23 4L22 4L22 3L19 3L19 2L18 2L18 1ZM12 2L12 4L13 4L13 2ZM17 3L17 4L18 4L18 3ZM14 5L14 6L13 6L13 7L12 7L12 6L11 6L11 7L12 7L12 9L11 9L11 8L10 8L10 9L8 9L8 10L7 10L7 9L6 9L6 10L7 10L7 11L5 11L5 13L6 13L6 14L2 14L2 15L1 15L1 16L2 16L2 15L3 15L3 16L4 16L4 15L5 15L5 16L7 16L7 15L8 15L8 18L7 18L7 17L6 17L6 18L7 18L7 19L3 19L3 18L5 18L5 17L1 17L1 18L2 18L2 19L3 19L3 20L4 20L4 22L5 22L5 23L6 23L6 24L9 24L9 26L11 26L11 27L13 27L13 28L14 28L14 29L15 29L15 30L16 30L16 29L15 29L15 28L18 28L18 29L17 29L17 30L18 30L18 29L19 29L19 28L20 28L20 30L21 30L21 31L22 31L22 32L25 32L25 31L26 31L26 30L27 30L27 29L26 29L26 30L25 30L25 29L24 29L24 28L23 28L23 29L22 29L22 28L20 28L20 26L19 26L19 25L21 25L21 26L22 26L22 27L23 27L23 26L24 26L24 25L22 25L22 24L27 24L27 23L26 23L26 21L27 21L27 22L28 22L28 23L29 23L29 21L27 21L27 20L26 20L26 21L24 21L24 22L21 22L21 23L20 23L20 22L18 22L18 23L17 23L17 22L16 22L16 23L17 23L17 24L19 24L19 25L18 25L18 27L17 27L17 26L16 26L16 25L15 25L15 22L14 22L14 21L16 21L16 19L15 19L15 18L16 18L16 17L17 17L17 20L19 20L19 21L22 21L22 20L20 20L20 18L18 18L18 17L20 17L20 16L21 16L21 17L22 17L22 18L23 18L23 17L24 17L24 16L25 16L25 14L26 14L26 13L25 13L25 12L24 12L24 11L25 11L25 10L23 10L23 8L21 8L21 7L22 7L22 6L21 6L21 7L20 7L20 5L19 5L19 7L18 7L18 6L17 6L17 8L18 8L18 9L16 9L16 8L15 8L15 7L16 7L16 6L15 6L15 5ZM9 6L9 7L10 7L10 6ZM14 6L14 7L15 7L15 6ZM14 8L14 11L15 11L15 13L14 13L14 12L13 12L13 11L12 11L12 13L14 13L14 14L9 14L9 15L11 15L11 16L10 16L10 17L9 17L9 20L8 20L8 19L7 19L7 20L5 20L5 22L6 22L6 23L7 23L7 22L6 22L6 21L7 21L7 20L8 20L8 23L9 23L9 20L10 20L10 25L12 25L12 26L13 26L13 25L14 25L14 28L15 28L15 27L16 27L16 26L15 26L15 25L14 25L14 24L12 24L12 23L14 23L14 22L11 22L11 19L10 19L10 17L12 17L12 18L13 18L13 17L14 17L14 18L15 18L15 17L14 17L14 16L13 16L13 17L12 17L12 15L14 15L14 14L15 14L15 16L16 16L16 15L17 15L17 13L18 13L18 12L17 12L17 11L16 11L16 10L15 10L15 8ZM19 8L19 9L18 9L18 11L19 11L19 10L21 10L21 9L20 9L20 8ZM10 9L10 11L11 11L11 9ZM12 9L12 10L13 10L13 9ZM8 10L8 11L7 11L7 12L6 12L6 13L7 13L7 14L6 14L6 15L7 15L7 14L8 14L8 13L7 13L7 12L9 12L9 13L11 13L11 12L9 12L9 10ZM22 10L22 11L20 11L20 13L19 13L19 14L22 14L22 15L21 15L21 16L22 16L22 17L23 17L23 16L24 16L24 15L23 15L23 14L24 14L24 12L23 12L23 10ZM30 10L30 11L31 11L31 10ZM0 11L0 12L1 12L1 11ZM16 12L16 13L15 13L15 14L16 14L16 13L17 13L17 12ZM21 12L21 13L22 13L22 12ZM18 15L18 16L17 16L17 17L18 17L18 16L20 16L20 15ZM22 15L22 16L23 16L23 15ZM12 19L12 21L14 21L14 20L13 20L13 19ZM0 20L0 25L1 25L1 20ZM24 22L24 23L25 23L25 22ZM19 23L19 24L20 24L20 23ZM21 23L21 24L22 24L22 23ZM25 25L25 28L28 28L28 25ZM26 26L26 27L27 27L27 26ZM29 28L29 30L30 30L30 29L31 29L31 28ZM21 29L21 30L22 30L22 31L24 31L24 29L23 29L23 30L22 30L22 29ZM9 31L9 32L10 32L10 31ZM0 0L0 7L7 7L7 0ZM1 1L1 6L6 6L6 1ZM2 2L2 5L5 5L5 2ZM33 0L26 0L26 7L33 7ZM32 1L27 1L27 6L32 6ZM31 2L28 2L28 5L31 5ZM0 33L7 33L7 26L0 26ZM1 32L6 32L6 27L1 27ZM2 31L5 31L5 28L2 28Z" fill="#000000"/></g></g></svg>
